<mxfile host="app.diagrams.net" modified="2021-01-26T09:09:53.617Z" agent="5.0 (Windows NT 10.0; Win64; x64) AppleWebKit/537.36 (KHTML, like Gecko) Chrome/87.0.4280.141 Safari/537.36" etag="m52k-AL5ptJFT1juEBl4" version="14.1.7" type="github" pages="2">
  <diagram id="u5qfOMzWHcVZdD9s4e2T" name="Page-1">
    <mxGraphModel dx="899" dy="472" grid="1" gridSize="10" guides="1" tooltips="1" connect="1" arrows="1" fold="1" page="1" pageScale="1" pageWidth="1100" pageHeight="850" math="0" shadow="0">
      <root>
        <mxCell id="0" />
        <mxCell id="1" parent="0" />
        <mxCell id="blc6zIk9-hEAJ74nUvbc-1" style="edgeStyle=orthogonalEdgeStyle;rounded=0;orthogonalLoop=1;jettySize=auto;html=1;exitX=0.5;exitY=1;exitDx=0;exitDy=0;" parent="1" edge="1">
          <mxGeometry relative="1" as="geometry">
            <mxPoint x="270" y="110" as="sourcePoint" />
            <mxPoint x="270" y="110" as="targetPoint" />
          </mxGeometry>
        </mxCell>
        <mxCell id="PMj2WIKoJGRZHFG8xkkE-1" value="" style="rounded=0;whiteSpace=wrap;html=1;" parent="1" vertex="1">
          <mxGeometry x="10" y="10" width="390" height="330" as="geometry" />
        </mxCell>
        <mxCell id="PMj2WIKoJGRZHFG8xkkE-2" value="Dashboard visible to every on" style="text;html=1;strokeColor=none;fillColor=none;align=center;verticalAlign=middle;whiteSpace=wrap;rounded=0;" parent="1" vertex="1">
          <mxGeometry x="40" y="30" width="180" height="20" as="geometry" />
        </mxCell>
        <mxCell id="PMj2WIKoJGRZHFG8xkkE-5" value="" style="rounded=0;whiteSpace=wrap;html=1;" parent="1" vertex="1">
          <mxGeometry x="50" y="80" width="170" height="230" as="geometry" />
        </mxCell>
        <mxCell id="PMj2WIKoJGRZHFG8xkkE-6" value="all posts listed&lt;br&gt;" style="text;html=1;strokeColor=none;fillColor=none;align=center;verticalAlign=middle;whiteSpace=wrap;rounded=0;" parent="1" vertex="1">
          <mxGeometry x="90" y="80" width="90" height="20" as="geometry" />
        </mxCell>
        <mxCell id="PMj2WIKoJGRZHFG8xkkE-9" value="" style="rounded=0;whiteSpace=wrap;html=1;" parent="1" vertex="1">
          <mxGeometry x="260" y="80" width="120" height="210" as="geometry" />
        </mxCell>
        <mxCell id="PMj2WIKoJGRZHFG8xkkE-12" value="" style="endArrow=classic;html=1;" parent="1" edge="1">
          <mxGeometry width="50" height="50" relative="1" as="geometry">
            <mxPoint x="380" y="140.0005263157895" as="sourcePoint" />
            <mxPoint x="500" y="155.79000000000002" as="targetPoint" />
          </mxGeometry>
        </mxCell>
        <mxCell id="PMj2WIKoJGRZHFG8xkkE-13" value="On login" style="text;html=1;strokeColor=none;fillColor=none;align=center;verticalAlign=middle;whiteSpace=wrap;rounded=0;rotation=8;" parent="1" vertex="1">
          <mxGeometry x="420" y="130" width="50" height="20" as="geometry" />
        </mxCell>
        <mxCell id="PMj2WIKoJGRZHFG8xkkE-14" value="&lt;span style=&quot;color: rgba(0 , 0 , 0 , 0) ; font-family: monospace ; font-size: 0px&quot;&gt;%3CmxGraphModel%3E%3Croot%3E%3CmxCell%20id%3D%220%22%2F%3E%3CmxCell%20id%3D%221%22%20parent%3D%220%22%2F%3E%3CmxCell%20id%3D%222%22%20value%3D%22%22%20style%3D%22rounded%3D0%3BwhiteSpace%3Dwrap%3Bhtml%3D1%3B%22%20vertex%3D%221%22%20parent%3D%221%22%3E%3CmxGeometry%20x%3D%2250%22%20y%3D%2280%22%20width%3D%22170%22%20height%3D%22230%22%20as%3D%22geometry%22%2F%3E%3C%2FmxCell%3E%3CmxCell%20id%3D%223%22%20value%3D%22all%20posts%20listed%26lt%3Bbr%26gt%3B%22%20style%3D%22text%3Bhtml%3D1%3BstrokeColor%3Dnone%3BfillColor%3Dnone%3Balign%3Dcenter%3BverticalAlign%3Dmiddle%3BwhiteSpace%3Dwrap%3Brounded%3D0%3B%22%20vertex%3D%221%22%20parent%3D%221%22%3E%3CmxGeometry%20x%3D%2290%22%20y%3D%2290%22%20width%3D%2290%22%20height%3D%2280%22%20as%3D%22geometry%22%2F%3E%3C%2FmxCell%3E%3C%2Froot%3E%3C%2FmxGraphModel%3E&lt;/span&gt;" style="whiteSpace=wrap;html=1;aspect=fixed;" parent="1" vertex="1">
          <mxGeometry x="500" y="10" width="340" height="340" as="geometry" />
        </mxCell>
        <mxCell id="PMj2WIKoJGRZHFG8xkkE-16" value="login and register buttons&lt;br&gt;" style="text;html=1;strokeColor=none;fillColor=none;align=center;verticalAlign=middle;whiteSpace=wrap;rounded=0;" parent="1" vertex="1">
          <mxGeometry x="275" y="80" width="90" height="70" as="geometry" />
        </mxCell>
        <mxCell id="PMj2WIKoJGRZHFG8xkkE-17" value="Display login page in this division on clicking the login button." style="rounded=0;whiteSpace=wrap;html=1;" parent="1" vertex="1">
          <mxGeometry x="260" y="140" width="120" height="150" as="geometry" />
        </mxCell>
        <mxCell id="PMj2WIKoJGRZHFG8xkkE-24" value="" style="rounded=0;whiteSpace=wrap;html=1;" parent="1" vertex="1">
          <mxGeometry x="710" y="80" width="120" height="210" as="geometry" />
        </mxCell>
        <mxCell id="PMj2WIKoJGRZHFG8xkkE-27" value="User Profile" style="text;html=1;strokeColor=none;fillColor=none;align=center;verticalAlign=middle;whiteSpace=wrap;rounded=0;" parent="1" vertex="1">
          <mxGeometry x="730" y="105" width="80" height="20" as="geometry" />
        </mxCell>
        <mxCell id="PMj2WIKoJGRZHFG8xkkE-28" value="Can edit profile&amp;nbsp;" style="text;html=1;strokeColor=none;fillColor=none;align=center;verticalAlign=middle;whiteSpace=wrap;rounded=0;" parent="1" vertex="1">
          <mxGeometry x="725" y="162.5" width="90" height="35" as="geometry" />
        </mxCell>
        <mxCell id="PMj2WIKoJGRZHFG8xkkE-29" value="Post 1" style="rounded=0;whiteSpace=wrap;html=1;" parent="1" vertex="1">
          <mxGeometry x="60" y="123.75" width="120" height="12.5" as="geometry" />
        </mxCell>
        <mxCell id="PMj2WIKoJGRZHFG8xkkE-30" value="Post 2" style="rounded=0;whiteSpace=wrap;html=1;" parent="1" vertex="1">
          <mxGeometry x="61" y="150" width="120" height="12.5" as="geometry" />
        </mxCell>
        <mxCell id="PMj2WIKoJGRZHFG8xkkE-31" value="Post N" style="rounded=0;whiteSpace=wrap;html=1;" parent="1" vertex="1">
          <mxGeometry x="60" y="230" width="120" height="12.5" as="geometry" />
        </mxCell>
        <mxCell id="PMj2WIKoJGRZHFG8xkkE-32" value="&lt;b&gt;&lt;font style=&quot;font-size: 18px&quot;&gt;.&lt;br&gt;.&lt;br&gt;&lt;/font&gt;&lt;/b&gt;&lt;b&gt;&lt;font style=&quot;font-size: 18px&quot;&gt;.&lt;/font&gt;&lt;/b&gt;" style="text;html=1;strokeColor=none;fillColor=none;align=center;verticalAlign=middle;whiteSpace=wrap;rounded=0;" parent="1" vertex="1">
          <mxGeometry x="60" y="162.5" width="40" height="67.5" as="geometry" />
        </mxCell>
        <mxCell id="PMj2WIKoJGRZHFG8xkkE-40" value="" style="rounded=0;whiteSpace=wrap;html=1;" parent="1" vertex="1">
          <mxGeometry x="520" y="81.25" width="170" height="230" as="geometry" />
        </mxCell>
        <mxCell id="PMj2WIKoJGRZHFG8xkkE-41" value="all posts listed&lt;br&gt;" style="text;html=1;strokeColor=none;fillColor=none;align=center;verticalAlign=middle;whiteSpace=wrap;rounded=0;" parent="1" vertex="1">
          <mxGeometry x="560" y="81.25" width="90" height="20" as="geometry" />
        </mxCell>
        <mxCell id="PMj2WIKoJGRZHFG8xkkE-42" value="Post 1" style="rounded=0;whiteSpace=wrap;html=1;" parent="1" vertex="1">
          <mxGeometry x="530" y="125" width="120" height="12.5" as="geometry" />
        </mxCell>
        <mxCell id="PMj2WIKoJGRZHFG8xkkE-43" value="Post 2" style="rounded=0;whiteSpace=wrap;html=1;" parent="1" vertex="1">
          <mxGeometry x="531" y="151.25" width="120" height="38.75" as="geometry" />
        </mxCell>
        <mxCell id="PMj2WIKoJGRZHFG8xkkE-44" value="Post N" style="rounded=0;whiteSpace=wrap;html=1;" parent="1" vertex="1">
          <mxGeometry x="530" y="231.25" width="120" height="12.5" as="geometry" />
        </mxCell>
        <mxCell id="PMj2WIKoJGRZHFG8xkkE-45" value="&lt;b&gt;&lt;font style=&quot;font-size: 18px&quot;&gt;&lt;br&gt;.&lt;br&gt;&lt;/font&gt;&lt;/b&gt;&lt;b&gt;&lt;font style=&quot;font-size: 18px&quot;&gt;.&lt;/font&gt;&lt;/b&gt;" style="text;html=1;strokeColor=none;fillColor=none;align=center;verticalAlign=middle;whiteSpace=wrap;rounded=0;" parent="1" vertex="1">
          <mxGeometry x="530" y="179.38" width="40" height="31.25" as="geometry" />
        </mxCell>
        <mxCell id="PMj2WIKoJGRZHFG8xkkE-46" value="Button to add new post" style="rounded=0;whiteSpace=wrap;html=1;" parent="1" vertex="1">
          <mxGeometry x="710" y="30" width="120" height="30" as="geometry" />
        </mxCell>
        <mxCell id="PMj2WIKoJGRZHFG8xkkE-47" value="&lt;span style=&quot;color: rgba(0 , 0 , 0 , 0) ; font-family: monospace ; font-size: 0px&quot;&gt;%3CmxGraphModel%3E%3Croot%3E%3CmxCell%20id%3D%220%22%2F%3E%3CmxCell%20id%3D%221%22%20parent%3D%220%22%2F%3E%3CmxCell%20id%3D%222%22%20value%3D%22%22%20style%3D%22rounded%3D0%3BwhiteSpace%3Dwrap%3Bhtml%3D1%3B%22%20vertex%3D%221%22%20parent%3D%221%22%3E%3CmxGeometry%20x%3D%2250%22%20y%3D%2280%22%20width%3D%22170%22%20height%3D%22230%22%20as%3D%22geometry%22%2F%3E%3C%2FmxCell%3E%3CmxCell%20id%3D%223%22%20value%3D%22all%20posts%20listed%26lt%3Bbr%26gt%3B%22%20style%3D%22text%3Bhtml%3D1%3BstrokeColor%3Dnone%3BfillColor%3Dnone%3Balign%3Dcenter%3BverticalAlign%3Dmiddle%3BwhiteSpace%3Dwrap%3Brounded%3D0%3B%22%20vertex%3D%221%22%20parent%3D%221%22%3E%3CmxGeometry%20x%3D%2290%22%20y%3D%2290%22%20width%3D%2290%22%20height%3D%2280%22%20as%3D%22geometry%22%2F%3E%3C%2FmxCell%3E%3C%2Froot%3E%3C%2FmxGraphModel%3E&lt;/span&gt;" style="whiteSpace=wrap;html=1;aspect=fixed;" parent="1" vertex="1">
          <mxGeometry x="130" y="400" width="340" height="340" as="geometry" />
        </mxCell>
        <mxCell id="PMj2WIKoJGRZHFG8xkkE-48" value="" style="rounded=0;whiteSpace=wrap;html=1;" parent="1" vertex="1">
          <mxGeometry x="150" y="420" width="300" height="118.75" as="geometry" />
        </mxCell>
        <mxCell id="PMj2WIKoJGRZHFG8xkkE-49" value="" style="endArrow=classic;html=1;exitX=1;exitY=0;exitDx=0;exitDy=0;entryX=0.657;entryY=-0.005;entryDx=0;entryDy=0;entryPerimeter=0;" parent="1" source="PMj2WIKoJGRZHFG8xkkE-45" target="PMj2WIKoJGRZHFG8xkkE-47" edge="1">
          <mxGeometry width="50" height="50" relative="1" as="geometry">
            <mxPoint x="460" y="340" as="sourcePoint" />
            <mxPoint x="350" y="390" as="targetPoint" />
          </mxGeometry>
        </mxCell>
        <mxCell id="PMj2WIKoJGRZHFG8xkkE-50" value="On clicking on any post" style="text;html=1;strokeColor=none;fillColor=none;align=center;verticalAlign=middle;whiteSpace=wrap;rounded=0;rotation=315;" parent="1" vertex="1">
          <mxGeometry x="400" y="311.25" width="110" height="30" as="geometry" />
        </mxCell>
        <mxCell id="PMj2WIKoJGRZHFG8xkkE-51" value="Post in Detail" style="text;html=1;strokeColor=none;fillColor=none;align=center;verticalAlign=middle;whiteSpace=wrap;rounded=0;" parent="1" vertex="1">
          <mxGeometry x="170" y="440" width="260" height="30" as="geometry" />
        </mxCell>
        <mxCell id="PMj2WIKoJGRZHFG8xkkE-52" value="If the post belongs to the user then display buttons to update and delete the post" style="rounded=0;whiteSpace=wrap;html=1;" parent="1" vertex="1">
          <mxGeometry x="200" y="490" width="240" height="38.75" as="geometry" />
        </mxCell>
        <mxCell id="PMj2WIKoJGRZHFG8xkkE-54" value="If the delete button is pressed display a confirmation message in a modal&lt;br&gt;" style="text;html=1;strokeColor=none;fillColor=none;align=center;verticalAlign=middle;whiteSpace=wrap;rounded=0;" parent="1" vertex="1">
          <mxGeometry x="181" y="580" width="230" height="50" as="geometry" />
        </mxCell>
      </root>
    </mxGraphModel>
  </diagram>
  <diagram id="eGdsj7483tY9T-kciDNX" name="Page-2">
    <mxGraphModel dx="899" dy="472" grid="1" gridSize="10" guides="1" tooltips="1" connect="1" arrows="1" fold="1" page="1" pageScale="1" pageWidth="850" pageHeight="1100" math="0" shadow="0">
      <root>
        <mxCell id="9ZCASY4gZFBXWc3Gs9fW-0" />
        <mxCell id="9ZCASY4gZFBXWc3Gs9fW-1" parent="9ZCASY4gZFBXWc3Gs9fW-0" />
      </root>
    </mxGraphModel>
  </diagram>
</mxfile>
